<?xml version="1.0" standalone="no"?>
<!DOCTYPE svg PUBLIC "-//W3C//DTD SVG 20010904//EN"
 "http://www.w3.org/TR/2001/REC-SVG-20010904/DTD/svg10.dtd">
<svg version="1.0" xmlns="http://www.w3.org/2000/svg"
 width="648.000000pt" height="648.000000pt" viewBox="0 0 648.000000 648.000000"
 preserveAspectRatio="xMidYMid meet">
<metadata>
Created by potrace 1.14, written by Peter Selinger 2001-2017
</metadata>
<g transform="translate(0.000000,648.000000) scale(0.100000,-0.100000)"
fill="#000000" stroke="none">
<path d="M0 3240 l0 -2840 163 0 163 0 0 2840 0 2840 -163 0 -163 0 0 -2840z"/>
<path d="M632 6064 c-22 -15 -29 -57 -14 -81 4 -7 24 -19 45 -28 68 -28 65 6
63 -680 0 -394 -5 -626 -11 -636 -5 -8 -26 -21 -45 -29 -43 -17 -59 -37 -60
-71 0 -32 19 -49 62 -55 18 -3 39 -7 46 -9 6 -2 12 0 12 4 0 5 15 6 33 2 17
-4 43 -6 57 -5 30 3 80 4 185 4 44 0 104 0 133 0 30 0 58 -2 63 -6 5 -3 9 0 9
6 0 6 5 8 11 5 19 -13 108 -6 138 10 22 11 31 23 31 41 0 41 -17 60 -64 74
-85 24 -79 -40 -79 760 l0 710 -296 0 c-252 0 -300 -2 -319 -16z"/>
<path d="M1340 6017 l0 -65 47 -23 c79 -40 85 -59 85 -272 0 -278 2 -262 -33
-302 -17 -19 -41 -35 -53 -35 -36 0 -43 -13 -42 -74 1 -57 2 -60 31 -69 83
-27 96 -64 99 -289 3 -211 15 -265 70 -332 92 -113 296 -143 449 -65 82 42
177 171 162 221 -12 38 -44 57 -77 46 -15 -6 -28 -14 -28 -19 0 -15 -50 -43
-60 -33 -5 5 -10 80 -10 166 -2 140 -4 161 -25 204 -40 87 -123 142 -262 172
-70 15 -81 20 -51 26 39 8 143 52 186 80 56 35 118 116 138 179 20 62 26 182
13 234 -38 143 -147 246 -305 288 -32 9 -121 19 -196 22 l-138 5 0 -65z"/>
<path d="M2739 6028 c-10 -36 -12 -66 -6 -93 4 -22 9 -47 11 -55 1 -8 6 -28 9
-45 4 -16 9 -39 12 -50 2 -11 9 -38 14 -60 5 -22 12 -51 15 -65 3 -14 10 -43
15 -65 5 -22 14 -65 21 -95 13 -60 27 -123 35 -155 3 -11 7 -29 9 -40 2 -11
11 -50 20 -86 16 -72 25 -113 31 -144 2 -11 6 -30 9 -42 5 -23 4 -23 -120 -21
-69 1 -128 -3 -133 -8 -7 -8 -31 -104 -31 -124 0 -4 72 -7 160 -7 172 2 167 4
176 -53 2 -14 10 -54 17 -90 17 -78 12 -95 -39 -130 -33 -23 -39 -32 -37 -60
2 -55 21 -61 188 -59 11 0 61 0 110 0 50 0 104 -1 120 0 17 0 71 0 120 0 50
-1 109 0 131 1 46 3 84 30 79 56 -2 9 -4 22 -4 28 -1 6 -19 19 -41 30 -25 12
-46 31 -56 53 -13 26 -83 299 -99 386 -2 11 -6 27 -8 35 -9 34 -87 363 -91
387 -2 10 -9 36 -14 58 -6 22 -13 51 -16 65 -2 14 -7 32 -10 40 -3 8 -7 26
-10 40 -2 14 -16 72 -30 130 -13 58 -27 116 -30 130 -12 61 -16 77 -28 118
l-12 42 -237 0 -236 0 -14 -52z"/>
<path d="M3724 5822 c1 -226 3 -261 17 -275 26 -25 65 -28 93 -6 23 18 28 32
41 104 12 70 17 89 35 137 24 64 56 110 92 134 16 11 28 29 29 42 1 28 1 87 0
107 -1 13 -25 15 -154 15 l-153 0 0 -258z"/>
<path d="M4129 6073 c0 -5 -1 -324 -2 -710 -2 -787 3 -731 -75 -753 -45 -12
-62 -28 -66 -64 -4 -29 19 -53 55 -60 13 -2 26 -5 29 -6 5 -2 114 -1 128 1 4
1 12 0 17 -1 10 -2 128 -1 143 1 4 1 12 0 17 -1 10 -2 93 -2 185 -1 25 1 70 0
101 0 31 0 72 6 92 15 32 13 37 20 37 47 0 39 -28 65 -79 74 -26 4 -42 14 -51
30 -10 20 -13 172 -13 730 l0 705 -259 0 c-142 0 -258 -3 -259 -7z"/>
<path d="M4745 6009 c1 -67 2 -72 33 -95 53 -42 106 -148 119 -237 3 -21 6
-46 8 -55 2 -9 4 -24 5 -32 1 -26 36 -59 67 -65 23 -3 35 1 53 20 22 23 22 28
22 267 0 134 0 249 -1 256 -1 9 -39 12 -154 12 l-153 0 1 -71z"/>
<path d="M5216 6057 c-41 -42 -14 -95 58 -113 14 -3 29 -16 33 -27 10 -30 11
-1237 1 -1265 -5 -14 -26 -31 -51 -42 -48 -21 -69 -53 -56 -87 11 -30 35 -40
98 -42 29 -1 58 -4 62 -7 5 -3 9 -1 9 4 0 6 14 7 33 3 17 -4 43 -6 57 -5 30 3
80 4 185 4 44 0 99 0 121 0 23 1 48 -1 55 -2 11 -3 14 134 14 800 l0 802 -298
0 -298 0 -23 -23z"/>
<path d="M5940 6011 l0 -69 47 -7 c114 -17 217 -94 273 -204 16 -33 30 -67 30
-75 0 -21 32 -56 56 -60 11 -2 31 4 44 14 23 18 23 18 24 241 l0 224 -237 3
-237 2 0 -69z"/>
<path d="M2660 5729 c-6 -24 -23 -84 -37 -134 -14 -49 -27 -97 -28 -105 -2 -8
-16 -58 -30 -110 -15 -52 -33 -120 -41 -150 -8 -30 -22 -78 -30 -106 -8 -28
-16 -60 -19 -70 -14 -65 -79 -285 -94 -319 -24 -54 -55 -86 -116 -120 -67 -37
-75 -44 -75 -70 0 -45 43 -65 135 -65 88 1 98 1 185 1 97 -1 146 11 153 39 10
37 -5 58 -61 89 -32 16 -62 38 -68 48 -12 20 -12 111 0 153 4 14 9 32 11 40 2
8 4 15 6 15 1 0 3 9 5 20 2 11 37 144 79 295 42 151 78 282 80 290 2 8 7 26
12 39 7 17 1 56 -20 140 -16 64 -30 118 -32 120 -2 1 -9 -17 -15 -40z"/>
<path d="M6098 5436 c-20 -40 -42 -73 -50 -73 -7 0 -38 -4 -68 -8 -30 -4 -61
-8 -67 -8 -7 0 -13 -1 -13 -3 0 -1 27 -29 60 -62 56 -57 59 -61 50 -93 -4 -19
-11 -55 -15 -81 -5 -41 -4 -47 9 -42 9 3 16 10 16 15 0 5 6 9 14 9 8 0 33 11
57 25 l43 24 74 -39 74 -40 -7 53 c-4 28 -11 62 -16 74 -9 24 15 60 79 117 40
35 34 41 -53 51 -32 3 -63 9 -68 12 -5 3 -22 34 -39 69 -17 36 -34 66 -37 69
-4 2 -23 -29 -43 -69z"/>
<path d="M6330 4960 c-11 -11 -22 -32 -26 -47 -32 -131 -183 -275 -313 -298
-19 -3 -38 -8 -42 -11 -14 -8 -6 -119 9 -120 6 -1 15 -3 20 -4 7 -2 125 -1
140 1 4 1 12 0 17 -1 10 -2 128 -1 143 1 4 1 12 0 17 -1 21 -4 116 0 126 5 6
4 9 96 9 236 -1 222 -2 229 -23 244 -29 20 -53 19 -77 -5z"/>
<path d="M2251 4196 c-35 -69 -66 -127 -69 -127 -4 -1 -16 -3 -27 -4 -11 -1
-36 -5 -55 -8 -19 -3 -55 -9 -80 -12 -25 -3 -54 -8 -65 -10 -11 -2 -27 -4 -35
-4 -8 -1 32 -48 89 -105 57 -57 101 -108 98 -113 -3 -5 -11 -38 -16 -74 -6
-35 -13 -75 -16 -89 -17 -85 -16 -100 2 -93 10 4 20 9 23 13 3 3 51 29 108 58
l103 52 62 -34 c99 -54 180 -96 184 -96 2 0 1 15 -3 33 -7 37 -9 53 -19 122
-3 28 -10 65 -15 84 -9 33 -7 35 93 132 56 54 99 100 97 102 -3 3 -27 7 -55
11 -27 3 -61 8 -75 10 -14 3 -41 7 -60 10 -50 8 -82 15 -84 18 -1 2 -29 58
-62 126 l-60 124 -63 -126z"/>
<path d="M3504 4224 c-27 -54 -53 -102 -57 -105 -5 -3 -7 -9 -5 -12 8 -16 -34
-47 -60 -45 -15 1 -32 -1 -37 -4 -6 -4 -44 -9 -84 -13 -124 -11 -124 -8 -12
-119 97 -97 98 -98 90 -135 -4 -20 -10 -52 -13 -71 -3 -19 -8 -46 -11 -60 -3
-14 -8 -45 -12 -68 l-6 -44 125 66 124 65 40 -20 c21 -12 77 -41 122 -66 46
-24 85 -43 87 -41 2 2 -3 37 -10 78 -7 41 -15 91 -18 110 -3 19 -8 46 -11 60
-5 22 9 38 94 120 55 52 100 97 100 101 0 3 -24 9 -52 12 -29 3 -62 8 -73 10
-11 3 -42 8 -70 11 -27 4 -57 9 -66 12 -8 2 -43 61 -76 131 l-60 126 -49 -99z"/>
<path d="M4751 4196 c-58 -115 -66 -126 -95 -131 -74 -12 -94 -15 -141 -20
-27 -3 -59 -8 -70 -10 -11 -2 -24 -4 -30 -4 -5 -1 36 -47 92 -103 57 -58 99
-110 97 -118 -8 -36 -17 -85 -38 -215 -3 -13 -7 -29 -11 -35 -9 -14 14 -4 142
61 l111 58 79 -41 c43 -22 97 -51 120 -64 51 -29 52 -29 48 -1 -9 67 -15 105
-20 127 -10 47 -17 95 -16 113 0 10 44 61 98 112 54 51 96 96 93 98 -3 3 -27
7 -55 11 -27 3 -59 8 -70 10 -12 2 -46 7 -76 11 -31 4 -60 10 -65 13 -6 4 -37
62 -70 130 l-60 123 -63 -125z"/>
<path d="M935 4190 c-49 -99 -63 -120 -84 -124 -27 -5 -150 -23 -210 -31 -18
-2 -35 -6 -37 -8 -2 -2 40 -47 95 -101 l98 -98 -13 -61 c-14 -72 -22 -116 -30
-174 l-6 -42 125 64 124 64 54 -28 c30 -15 84 -44 121 -64 75 -42 81 -44 74
-19 -3 9 -8 35 -12 57 -3 22 -12 76 -19 120 l-13 80 100 96 c55 53 96 99 91
102 -5 3 -32 9 -59 13 -27 3 -58 8 -69 10 -11 2 -40 7 -65 10 -25 3 -52 7 -60
10 -9 2 -42 58 -74 124 -32 66 -62 120 -65 120 -4 0 -33 -54 -66 -120z"/>
<path d="M6010 4194 c-35 -74 -62 -119 -75 -124 -17 -6 -53 -12 -162 -25 -13
-2 -42 -6 -64 -10 l-41 -7 100 -102 c55 -55 98 -108 97 -116 -2 -8 -6 -31 -9
-50 -4 -19 -9 -42 -11 -50 -2 -8 -6 -33 -10 -55 -3 -22 -8 -55 -11 -73 l-7
-34 125 65 125 66 64 -33 c35 -18 91 -47 123 -64 32 -18 60 -32 62 -32 4 0 -2
50 -16 125 -5 28 -12 70 -16 95 -3 25 -7 46 -9 48 -1 2 43 48 98 102 56 54 99
101 97 103 -3 3 -27 8 -55 12 -27 3 -59 7 -70 9 -11 1 -46 6 -77 10 -32 5 -62
13 -67 20 -5 6 -30 54 -55 106 -60 122 -61 123 -72 127 -5 1 -34 -50 -64 -113z"/>
<path d="M820 3400 c-137 -6 -173 -18 -196 -61 -39 -77 -1 -155 90 -183 31
-10 58 -17 61 -17 12 3 70 -33 87 -53 32 -36 73 -135 133 -316 31 -96 61 -184
66 -195 4 -11 65 -189 134 -395 69 -206 166 -494 215 -640 50 -146 92 -272 95
-280 2 -8 42 -130 90 -270 47 -140 111 -331 142 -423 l56 -168 60 3 61 3 12
45 c7 25 40 137 74 250 34 113 66 221 72 240 19 69 69 235 75 250 3 8 7 22 9
31 5 25 170 577 217 724 l41 130 1 375 c1 206 -1 364 -5 350 -18 -57 -122
-416 -125 -430 -10 -49 -58 -191 -62 -186 -3 3 -18 43 -34 88 -15 46 -55 162
-89 258 -34 96 -93 265 -132 375 -65 188 -120 344 -155 443 -9 24 -21 46 -27
48 -18 7 -822 10 -966 4z"/>
<path d="M2639 3402 l-36 -3 0 -1317 c0 -1170 -2 -1321 -16 -1354 -16 -37 -49
-66 -84 -72 -102 -20 -159 -57 -169 -111 -8 -45 18 -100 58 -122 31 -17 76
-18 670 -21 662 -2 666 -2 711 39 10 9 20 29 23 45 3 16 7 30 9 32 7 8 -19 68
-38 84 -10 9 -50 29 -87 43 -113 43 -103 -80 -103 1235 0 624 3 1153 7 1175 9
52 33 79 81 95 101 32 135 67 135 138 0 64 -36 99 -113 108 -45 6 -989 11
-1048 6z"/>
<path d="M4319 3399 c-110 -9 -149 -37 -154 -109 -4 -63 26 -99 110 -131 122
-46 110 92 110 -1259 0 -1097 -1 -1167 -18 -1198 -10 -18 -28 -37 -40 -41
-142 -56 -161 -73 -161 -147 -1 -39 4 -50 31 -74 20 -18 48 -31 75 -35 24 -3
279 -5 567 -3 l524 3 1 1488 c1 819 -2 1493 -5 1498 -6 11 -920 18 -1040 8z"/>
<path d="M5615 3402 l-60 -3 1 -125 c1 -69 4 -127 6 -129 2 -2 26 -6 53 -10
104 -12 238 -64 328 -127 96 -67 198 -206 251 -343 63 -165 79 -182 160 -169
89 13 90 18 90 492 1 217 -2 398 -5 404 -6 9 -672 17 -824 10z"/>
<path d="M942 1693 c0 -480 -4 -707 -12 -752 -28 -152 -88 -241 -227 -332 -38
-25 -65 -51 -71 -67 -13 -38 6 -90 41 -116 27 -20 41 -21 383 -23 334 -3 357
-2 393 17 51 25 68 66 52 121 -6 21 -15 39 -19 39 -4 0 -25 16 -47 35 -22 19
-43 35 -48 35 -22 0 -117 84 -144 127 -65 101 -65 107 -68 553 l-2 405 -38
105 c-20 58 -48 137 -62 175 -14 39 -27 77 -30 85 -3 8 -7 20 -9 25 -5 19 -86
250 -89 253 -1 1 -3 -307 -3 -685z"/>
<path d="M5874 2184 c-32 -66 -63 -122 -68 -125 -4 -4 -36 -10 -70 -14 -63 -8
-74 -9 -141 -20 -22 -4 -46 -7 -53 -7 -7 -1 32 -47 88 -103 l101 -101 -10 -49
c-15 -69 -20 -102 -27 -160 -4 -27 -8 -53 -11 -57 -8 -14 3 -9 129 57 109 56
127 63 144 51 10 -7 57 -33 104 -57 47 -24 87 -47 88 -51 2 -5 10 -8 18 -8 14
0 14 29 -1 100 -3 14 -7 39 -9 55 -2 17 -7 50 -11 75 l-7 46 102 97 c55 53 99
97 97 97 -2 0 -29 5 -58 10 -30 6 -70 13 -89 15 -19 3 -49 7 -67 9 -61 8 -67
15 -113 116 -75 164 -67 162 -136 24z"/>
<path d="M6325 1333 c-31 -8 -62 -51 -86 -117 -30 -85 -106 -238 -136 -272
-71 -84 -127 -135 -193 -179 -25 -16 -48 -34 -51 -38 -3 -5 -9 -8 -12 -8 -4 0
-27 -8 -52 -19 -42 -18 -105 -37 -150 -46 -59 -11 -69 -14 -76 -21 -8 -8 -11
-79 -10 -180 l1 -53 454 0 c424 0 454 1 457 18 3 9 4 197 3 417 -1 403 -5 457
-38 484 -16 13 -83 21 -111 14z"/>
</g>
</svg>
