<?xml version="1.0" encoding="UTF-8"?>
<svg id="Layer_2" data-name="Layer 2" xmlns="http://www.w3.org/2000/svg" viewBox="0 0 162 141.91">
  <defs>
    <style>
      .cls-1 {
        fill: #f89a57;
      }

      .cls-2 {
        fill: #231f20;
      }
    </style>
  </defs>
  <g id="Layer_1-2" data-name="Layer 1">
    <path class="cls-2" d="m31.18,0v34.42c0,.76.15,1.31.44,1.64.16.2.3.32.44.37.14.05.59.17,1.35.37.94.22,1.41.75,1.41,1.61,0,.51-.25.92-.76,1.23-.37.23-.99.35-1.85.35h-14.82c-.7,0-1.25-.13-1.63-.4s-.57-.64-.57-1.13c0-.8.39-1.33,1.17-1.58.64-.21,1.02-.35,1.13-.4.11-.05.22-.16.34-.34.23-.31.35-.81.35-1.49V5.33c0-.68-.12-1.18-.35-1.49-.12-.18-.23-.29-.34-.34-.11-.05-.48-.18-1.13-.4-.78-.25-1.17-.78-1.17-1.58,0-.49.19-.86.57-1.13s.92-.4,1.63-.4h13.8Zm8.99,20.39c1.8.27,3.18.58,4.15.91.97.33,1.84.78,2.62,1.35.82.61,1.45,1.33,1.89,2.17.44.84.66,1.73.66,2.67v6.06c0,.63.21.94.62.94.16,0,.29-.04.4-.13.11-.09.26-.26.45-.51.49-.66.99-1,1.49-1,.33,0,.66.18,1,.53.33.35.5.7.5,1.05,0,.61-.29,1.34-.86,2.21-.58.87-1.29,1.65-2.15,2.33-.8.64-1.67,1.11-2.61,1.39-.94.28-2.04.42-3.31.42-2.58,0-4.59-.74-6.04-2.21-1.45-1.47-2.17-3.53-2.17-6.17v-4.92c0-1.09-.01-1.73-.03-1.9-.1-.78-.37-1.45-.82-2.02-.57-.68-1.38-1.08-2.43-1.2v-3.13c1.05-.16,1.81-.43,2.26-.82.39-.35.66-.75.81-1.2.15-.45.22-1.11.22-1.99v-7.76c0-1.23-.24-2.15-.72-2.75-.48-.6-1.34-1.08-2.59-1.44V0h.76c2.17,0,4.01.08,5.54.23,2.27.22,4.29.96,6.06,2.23,2.56,1.82,3.84,4.4,3.84,7.76,0,2.75-.86,5.01-2.58,6.77-.72.74-1.57,1.35-2.53,1.82s-2.44,1-4.41,1.58Z"/>
    <path class="cls-2" d="m66.87,7.44l1.49,6.06-5.19,18.93c-.16.55-.23,1.05-.23,1.52,0,1.23.58,2.11,1.73,2.64l1.03.47c.64.29.97.78.97,1.46,0,.98-.71,1.46-2.14,1.46h-7.44c-.72,0-1.29-.15-1.71-.45-.42-.3-.63-.72-.63-1.25,0-.57.43-1.04,1.29-1.41.8-.35,1.39-.67,1.77-.95.38-.28.75-.67,1.1-1.16.55-.8,1-1.86,1.35-3.19l6.62-24.14Zm2.02-7.44h11.81l8.14,34.42c.16.61.33,1.14.53,1.61.18.37.57.67,1.17.91.51.22.86.43,1.05.64.19.22.29.51.29.88,0,1.02-.76,1.52-2.29,1.52h-14.62c-.59,0-1.05-.14-1.41-.42-.35-.28-.53-.66-.53-1.13,0-.39.08-.68.23-.88.16-.19.51-.44,1.05-.73.39-.19.66-.41.82-.64.16-.23.23-.53.23-.88,0-.33-.03-.62-.09-.88l-.94-4.25h-8.17l.79-3.49h6.56l-5.39-23.82.73-2.87Z"/>
    <path class="cls-2" d="m93.09,0h7.71v3.54c-.92.53-1.63,1.2-2.14,2.02-.84,1.33-1.41,2.9-1.7,4.72l-.29,1.79c-.1.57-.31,1.01-.63,1.33s-.73.48-1.22.48-.92-.18-1.25-.53-.48-.81-.48-1.38V0Zm23.09,0v34.42c0,.76.15,1.31.44,1.64.16.2.3.32.44.37.14.05.59.17,1.35.37.94.22,1.41.75,1.41,1.61,0,.51-.25.92-.76,1.23-.37.23-1,.35-1.88.35h-15c-.86,0-1.51-.13-1.95-.4s-.66-.66-.66-1.19c0-.86.47-1.4,1.41-1.61.76-.19,1.21-.32,1.35-.37.14-.05.27-.17.41-.37.29-.33.44-.88.44-1.64V0h13.01Zm10.14,0v11.98c0,.57-.16,1.03-.48,1.38s-.74.53-1.25.53-.89-.16-1.22-.48-.53-.77-.63-1.33l-.29-1.79c-.29-1.82-.86-3.39-1.7-4.72-.53-.82-1.24-1.49-2.14-2.02V0h7.71Z"/>
    <path class="cls-2" d="m145.91,0v39.99h-13.8c-.7,0-1.25-.13-1.63-.4s-.57-.64-.57-1.13c0-.8.39-1.33,1.17-1.58.64-.21,1.02-.35,1.13-.4.11-.05.22-.16.34-.34.23-.31.35-.81.35-1.49V5.33c0-.68-.12-1.18-.35-1.49-.12-.18-.23-.29-.34-.34-.11-.05-.48-.18-1.13-.4-.78-.25-1.17-.78-1.17-1.58,0-.49.19-.86.57-1.13s.92-.4,1.63-.4h13.8Zm2.61,0h11.81v10.37c0,.61-.12,1.04-.35,1.32-.23.27-.61.41-1.11.41-.43,0-.74-.09-.94-.26s-.38-.54-.56-1.08c-.74-2.27-1.83-3.99-3.27-5.19-1.44-1.19-3.3-1.9-5.58-2.14V0Zm.03,39.99v-3.16c1.27-.19,2.32-.47,3.15-.82s1.67-.89,2.5-1.61c.84-.72,1.51-1.47,2.01-2.24.5-.77.97-1.79,1.42-3.06.21-.62.44-1.05.67-1.27.23-.22.56-.34.97-.34.55,0,.93.16,1.14.48s.32.88.32,1.68v10.34h-12.19Zm10.85-21.5l-3.01,2.89.68,4.12-3.68-1.97-3.71,1.92.74-4.11-2.97-2.94,4.14-.57,1.87-3.73,1.82,3.76,4.13.63Z"/>
    <path class="cls-2" d="m44.85,66.94l10.82,30.81,4.78-16.64v18.24l-12.69,42.57h-2.91l-21.31-63.22c-.73-2.12-1.5-3.55-2.31-4.28-.48-.48-1.3-.82-2.47-1.04-2.38-.51-3.57-1.65-3.57-3.41,0-.95.34-1.69,1.02-2.22.68-.53,1.66-.8,2.94-.8h25.71Zm-21.31,25.27l5.82,16.59v16.53c0,1.68.06,2.89.19,3.63.13.73.41,1.54.85,2.42.77,1.61,1.83,2.82,3.19,3.63l2.03,1.32c1.39.84,2.09,1.78,2.09,2.8,0,1.87-1.37,2.8-4.12,2.8h-13.79c-2.75,0-4.12-.91-4.12-2.75,0-.58.12-1.03.36-1.35.24-.31.7-.67,1.4-1.07,4.06-2.2,6.1-6.01,6.1-11.42v-33.12Zm41.52-25.27h25.87c2.75,0,4.12.95,4.12,2.86,0,1.5-.73,2.49-2.2,2.97-1.21.4-1.92.65-2.12.74-.2.09-.41.3-.63.63-.44.59-.66,1.52-.66,2.8v54.98c0,1.28.22,2.22.66,2.8.22.33.43.54.63.63.2.09.91.34,2.12.74,1.46.48,2.2,1.46,2.2,2.97,0,1.9-1.37,2.86-4.12,2.86h-27.74c-1.61,0-2.83-.25-3.65-.74s-1.24-1.24-1.24-2.22c0-1.61.88-2.62,2.64-3.02,1.43-.37,2.27-.6,2.53-.69.26-.09.51-.3.77-.63.55-.66.82-1.7.82-3.13v-64.54Z"/>
    <path class="cls-2" d="m134.05,66.94v74.97h-25.87c-1.32,0-2.33-.25-3.05-.74s-1.07-1.2-1.07-2.11c0-1.5.73-2.49,2.2-2.97,1.21-.4,1.91-.65,2.11-.74.2-.09.41-.3.63-.63.44-.58.66-1.52.66-2.8v-54.98c0-1.28-.22-2.22-.66-2.8-.22-.33-.43-.54-.63-.63-.2-.09-.91-.34-2.11-.74-1.46-.48-2.2-1.46-2.2-2.97,0-.91.36-1.62,1.07-2.11s1.73-.74,3.05-.74h25.87Zm4.89,0h22.14v19.44c0,1.14-.22,1.96-.66,2.47-.44.51-1.14.77-2.09.77-.81,0-1.39-.16-1.76-.49s-.71-1.01-1.04-2.03c-1.39-4.25-3.43-7.49-6.12-9.72-2.69-2.23-6.18-3.57-10.46-4.01v-6.43Zm.05,74.97v-5.93c2.38-.37,4.35-.88,5.9-1.54s3.12-1.67,4.7-3.02c1.57-1.35,2.83-2.75,3.76-4.2.93-1.45,1.82-3.36,2.66-5.74.4-1.17.82-1.97,1.26-2.39.44-.42,1.04-.63,1.81-.63,1.03,0,1.74.3,2.14.91s.6,1.66.6,3.16v19.39h-22.85Zm19.55-40.24l-5.12,4.92,1.15,7.01-6.26-3.35-6.31,3.26,1.25-6.99-5.05-5,7.04-.97,3.19-6.35,3.1,6.39,7.02,1.07Z"/>
    <polygon class="cls-1" points="35.17 51.39 30.05 56.31 31.2 63.32 24.94 59.97 18.63 63.23 19.88 56.24 14.83 51.24 21.86 50.27 25.05 43.92 28.15 50.31 35.17 51.39"/>
    <polygon class="cls-1" points="67.98 51.39 62.86 56.31 64.01 63.32 57.75 59.97 51.44 63.23 52.69 56.24 47.64 51.24 54.67 50.27 57.86 43.92 60.96 50.31 67.98 51.39"/>
    <polygon class="cls-1" points="98.93 51.39 93.81 56.31 94.96 63.32 88.7 59.97 82.39 63.23 83.64 56.24 78.59 51.24 85.62 50.27 88.81 43.92 91.91 50.31 98.93 51.39"/>
    <polygon class="cls-1" points="130.47 51.39 125.35 56.31 126.5 63.32 120.23 59.97 113.92 63.23 115.17 56.24 110.12 51.24 117.16 50.27 120.35 43.92 123.44 50.31 130.47 51.39"/>
    <polygon class="cls-1" points="162 51.39 156.88 56.31 158.03 63.32 151.76 59.97 145.45 63.23 146.7 56.24 141.65 51.24 148.69 50.27 151.88 43.92 154.98 50.31 162 51.39"/>
    <rect class="cls-2" width="8.14" height="141.91"/>
  </g>
</svg>